REM DIRINDEX 1\2,1\3,1\4,1\5,1\6,1\7,1\8
REM DIRNAME cjc152,folder01,folder02,folder03,folder04,folder05,folder06,folder07
TITLE ""
FILE "06_Ch2_Commuting_Words.mp3" MP3
  TRACK 01 AUDIO
    TITLE "0:"
    INDEX 01 00:00:00
  TRACK 02 AUDIO
    TITLE "8:cjc152_0267"
    INDEX 01 00:00:27
  TRACK 03 AUDIO
    TITLE "0:"
    INDEX 01 00:03:06
  TRACK 04 AUDIO
    TITLE "8:cjc152_0268"
    INDEX 01 00:03:64
  TRACK 05 AUDIO
    TITLE "0:"
    INDEX 01 00:05:03
  TRACK 06 AUDIO
    TITLE "2:cjc152_0269"
    INDEX 01 00:05:71
  TRACK 07 AUDIO
    TITLE "0:"
    INDEX 01 00:07:07
  TRACK 08 AUDIO
    TITLE "2:cjc152_0270"
    INDEX 01 00:07:35
  TRACK 09 AUDIO
    TITLE "0:"
    INDEX 01 00:08:46
  TRACK 10 AUDIO
    TITLE "2:cjc152_0271"
    INDEX 01 00:09:30
  TRACK 11 AUDIO
    TITLE "0:"
    INDEX 01 00:10:61
  TRACK 12 AUDIO
    TITLE "2:cjc152_0272"
    INDEX 01 00:11:17
  TRACK 13 AUDIO
    TITLE "0:"
    INDEX 01 00:13:04
  TRACK 14 AUDIO
    TITLE "2:cjc152_0273"
    INDEX 01 00:13:65
  TRACK 15 AUDIO
    TITLE "0:"
    INDEX 01 00:14:56
  TRACK 16 AUDIO
    TITLE "2:cjc152_0274"
    INDEX 01 00:15:11
  TRACK 17 AUDIO
    TITLE "0:"
    INDEX 01 00:16:18
  TRACK 18 AUDIO
    TITLE "2:cjc152_0275"
    INDEX 01 00:17:02
  TRACK 19 AUDIO
    TITLE "0:"
    INDEX 01 00:18:05
  TRACK 20 AUDIO
    TITLE "2:cjc152_0276"
    INDEX 01 00:18:37
  TRACK 21 AUDIO
    TITLE "0:"
    INDEX 01 00:19:36
  TRACK 22 AUDIO
    TITLE "2:cjc152_0277"
    INDEX 01 00:20:18
  TRACK 23 AUDIO
    TITLE "0:"
    INDEX 01 00:21:25
  TRACK 24 AUDIO
    TITLE "2:cjc152_0278"
    INDEX 01 00:21:57
  TRACK 25 AUDIO
    TITLE "0:"
    INDEX 01 00:23:46
  TRACK 26 AUDIO
    TITLE "2:cjc152_0279"
    INDEX 01 00:24:29
  TRACK 27 AUDIO
    TITLE "0:"
    INDEX 01 00:25:23
  TRACK 28 AUDIO
    TITLE "2:cjc152_0280"
    INDEX 01 00:25:54
  TRACK 29 AUDIO
    TITLE "0:"
    INDEX 01 00:26:69
  TRACK 30 AUDIO
    TITLE "2:cjc152_0281"
    INDEX 01 00:27:51
  TRACK 31 AUDIO
    TITLE "0:"
    INDEX 01 00:28:57
  TRACK 32 AUDIO
    TITLE "2:cjc152_0282"
    INDEX 01 00:29:15
  TRACK 33 AUDIO
    TITLE "0:"
    INDEX 01 00:30:06
  TRACK 34 AUDIO
    TITLE "2:cjc152_0283"
    INDEX 01 00:30:67
  TRACK 35 AUDIO
    TITLE "0:"
    INDEX 01 00:32:01
  TRACK 36 AUDIO
    TITLE "2:cjc152_0284"
    INDEX 01 00:32:33
  TRACK 37 AUDIO
    TITLE "0:"
    INDEX 01 00:33:38
  TRACK 38 AUDIO
    TITLE "2:cjc152_0285"
    INDEX 01 00:34:24
  TRACK 39 AUDIO
    TITLE "0:"
    INDEX 01 00:35:53
  TRACK 40 AUDIO
    TITLE "2:cjc152_0286"
    INDEX 01 00:36:09
  TRACK 41 AUDIO
    TITLE "0:"
    INDEX 01 00:37:44
  TRACK 42 AUDIO
    TITLE "2:cjc152_0287"
    INDEX 01 00:38:30
  TRACK 43 AUDIO
    TITLE "0:"
    INDEX 01 00:39:43
  TRACK 44 AUDIO
    TITLE "2:cjc152_0288"
    INDEX 01 00:39:72
  TRACK 45 AUDIO
    TITLE "0:"
    INDEX 01 00:41:36
  TRACK 46 AUDIO
    TITLE "2:cjc152_0289"
    INDEX 01 00:42:18
  TRACK 47 AUDIO
    TITLE "0:"
    INDEX 01 00:43:29
  TRACK 48 AUDIO
    TITLE "2:cjc152_0290"
    INDEX 01 00:43:58
  TRACK 49 AUDIO
    TITLE "0:"
    INDEX 01 00:45:14
  TRACK 50 AUDIO
    TITLE "2:cjc152_0291"
    INDEX 01 00:45:71
  TRACK 51 AUDIO
    TITLE "0:"
    INDEX 01 00:47:30
  TRACK 52 AUDIO
    TITLE "2:cjc152_0292"
    INDEX 01 00:47:68
  TRACK 53 AUDIO
    TITLE "0:"
    INDEX 01 00:49:25
  TRACK 54 AUDIO
    TITLE "2:cjc152_0293"
    INDEX 01 00:50:09
  TRACK 55 AUDIO
    TITLE "0:"
    INDEX 01 00:51:24
  TRACK 56 AUDIO
    TITLE "2:cjc152_0294"
    INDEX 01 00:51:54
  TRACK 57 AUDIO
    TITLE "0:"
    INDEX 01 00:52:73
  TRACK 58 AUDIO
    TITLE "2:cjc152_0295"
    INDEX 01 00:53:57
  TRACK 59 AUDIO
    TITLE "0:"
    INDEX 01 00:54:66
  TRACK 60 AUDIO
    TITLE "2:cjc152_0296"
    INDEX 01 00:55:24
  TRACK 61 AUDIO
    TITLE "0:"
    INDEX 01 00:56:57
  TRACK 62 AUDIO
    TITLE "2:cjc152_0297"
    INDEX 01 00:57:37
  TRACK 63 AUDIO
    TITLE "0:"
    INDEX 01 00:58:52
  TRACK 64 AUDIO
    TITLE "2:cjc152_0298"
    INDEX 01 00:59:04
  TRACK 65 AUDIO
    TITLE "0:"
    INDEX 01 01:00:62
  TRACK 66 AUDIO
    TITLE "2:cjc152_0299"
    INDEX 01 01:01:44
  TRACK 67 AUDIO
    TITLE "0:"
    INDEX 01 01:02:54
  TRACK 68 AUDIO
    TITLE "2:cjc152_0300"
    INDEX 01 01:03:10
  TRACK 69 AUDIO
    TITLE "0:"
    INDEX 01 01:05:07
  TRACK 70 AUDIO
    TITLE "2:cjc152_0301"
    INDEX 01 01:05:68
  TRACK 71 AUDIO
    TITLE "0:"
    INDEX 01 01:07:25
  TRACK 72 AUDIO
    TITLE "2:cjc152_0302"
    INDEX 01 01:07:55
  TRACK 73 AUDIO
    TITLE "0:"
    INDEX 01 01:08:66
  TRACK 74 AUDIO
    TITLE "2:cjc152_0303"
    INDEX 01 01:09:50
  TRACK 75 AUDIO
    TITLE "0:"
    INDEX 01 01:12:17
  TRACK 76 AUDIO
    TITLE "2:cjc152_0304"
    INDEX 01 01:12:46
  TRACK 77 AUDIO
    TITLE "0:"
    INDEX 01 01:14:08
  TRACK 78 AUDIO
    TITLE "2:cjc152_0305"
    INDEX 01 01:14:68
  TRACK 79 AUDIO
    TITLE "0:"
    INDEX 01 01:16:14
  TRACK 80 AUDIO
    TITLE "2:cjc152_0306"
    INDEX 01 01:16:44
  TRACK 81 AUDIO
    TITLE "0:"
    INDEX 01 01:18:07
  TRACK 82 AUDIO
    TITLE "2:cjc152_0307"
    INDEX 01 01:18:68
  TRACK 83 AUDIO
    TITLE "0:"
    INDEX 01 01:20:06
  TRACK 84 AUDIO
    TITLE "2:cjc152_0308"
    INDEX 01 01:20:36
  TRACK 85 AUDIO
    TITLE "0:"
    INDEX 01 01:21:41
  TRACK 86 AUDIO
    TITLE "2:cjc152_0309"
    INDEX 01 01:22:25
  TRACK 87 AUDIO
    TITLE "0:"
    INDEX 01 01:23:38
  TRACK 88 AUDIO
    TITLE "2:cjc152_0310"
    INDEX 01 01:23:67
  TRACK 89 AUDIO
    TITLE "0:"
    INDEX 01 01:24:71
  TRACK 90 AUDIO
    TITLE "2:cjc152_0311"
    INDEX 01 01:25:57
  TRACK 91 AUDIO
    TITLE "0:"
    INDEX 01 01:27:16
  TRACK 92 AUDIO
    TITLE "2:cjc152_0312"
    INDEX 01 01:27:50
  TRACK 93 AUDIO
    TITLE "0:"
    INDEX 01 01:29:74
  TRACK 94 AUDIO
    TITLE "2:cjc152_0313"
    INDEX 01 01:30:58
  TRACK 95 AUDIO
    TITLE "0:"
    INDEX 01 01:31:61
  TRACK 96 AUDIO
    TITLE "2:cjc152_0314"
    INDEX 01 01:32:15
  TRACK 97 AUDIO
    TITLE "0:"
    INDEX 01 01:33:15
